<?xml version="1.0" encoding="utf-8"?>
<!-- Generator: Adobe Illustrator 17.0.1, SVG Export Plug-In . SVG Version: 6.00 Build 0)  -->
<!DOCTYPE svg PUBLIC "-//W3C//DTD SVG 1.1//EN" "http://www.w3.org/Graphics/SVG/1.1/DTD/svg11.dtd">
<svg version="1.1" id="Слой_1" xmlns="http://www.w3.org/2000/svg" xmlns:xlink="http://www.w3.org/1999/xlink" x="0px" y="0px"
	 width="35px" height="35.001px" viewBox="0 0 35 35.001" enable-background="new 0 0 35 35.001" xml:space="preserve">
<g>
	<defs>
		<rect id="SVGID_1_" y="0.001" width="35" height="35"/>
	</defs>
	<clipPath id="SVGID_2_">
		<use xlink:href="#SVGID_1_"  overflow="visible"/>
	</clipPath>
	<path clip-path="url(#SVGID_2_)" fill="#333333" d="M24.847,0.001H10.153c-1.416,0-2.57,1.153-2.57,2.57v29.86
		c0,1.417,1.153,2.57,2.57,2.57h14.694c1.417,0,2.57-1.153,2.57-2.57V2.57C27.417,1.154,26.264,0.001,24.847,0.001 M8.75,4.667
		H26.25v22.167H8.75V4.667z M10.153,1.167h14.694c0.774,0,1.404,0.629,1.404,1.403v0.93H8.75V2.57
		C8.75,1.797,9.379,1.167,10.153,1.167 M24.847,33.834H10.153c-0.774,0-1.403-0.629-1.403-1.403v-4.43H26.25v4.43
		C26.25,33.204,25.621,33.834,24.847,33.834"/>
	<path clip-path="url(#SVGID_2_)" fill="#58B749" d="M17.5,28.584c-1.287,0-2.333,1.047-2.333,2.333s1.047,2.333,2.333,2.333
		c1.287,0,2.333-1.047,2.333-2.333S18.787,28.584,17.5,28.584 M17.5,32.084c-0.643,0-1.167-0.523-1.167-1.167
		s0.523-1.167,1.167-1.167c0.643,0,1.167,0.523,1.167,1.167S18.143,32.084,17.5,32.084"/>
	<path clip-path="url(#SVGID_2_)" fill="#58B749" d="M15.167,2.917H17.5c0.323,0,0.583-0.261,0.583-0.583
		c0-0.323-0.261-0.583-0.583-0.583h-2.333c-0.323,0-0.583,0.261-0.583,0.583C14.583,2.657,14.844,2.917,15.167,2.917"/>
	<path clip-path="url(#SVGID_2_)" fill="#58B749" d="M19.25,2.917h0.583c0.323,0,0.583-0.261,0.583-0.583
		c0-0.323-0.261-0.583-0.583-0.583H19.25c-0.323,0-0.583,0.261-0.583,0.583C18.667,2.657,18.927,2.917,19.25,2.917"/>
	<path clip-path="url(#SVGID_2_)" fill="#58B749" d="M33.024,2.666c-0.228-0.228-0.597-0.228-0.825,0
		c-0.228,0.228-0.228,0.597,0,0.825c2.179,2.179,2.179,5.725,0,7.905c-0.228,0.228-0.228,0.597,0,0.825
		c0.114,0.114,0.263,0.171,0.412,0.171c0.149,0,0.299-0.057,0.412-0.171C35.659,9.587,35.659,5.3,33.024,2.666"/>
	<path clip-path="url(#SVGID_2_)" fill="#58B749" d="M30.568,3.994c-0.228-0.228-0.597-0.228-0.825,0
		c-0.228,0.228-0.228,0.597,0,0.825c0.722,0.722,1.119,1.683,1.119,2.706s-0.397,1.984-1.119,2.706
		c-0.228,0.228-0.228,0.597,0,0.825c0.114,0.114,0.263,0.171,0.412,0.171c0.149,0,0.299-0.057,0.412-0.171
		c0.942-0.941,1.461-2.196,1.461-3.53S31.51,4.935,30.568,3.994"/>
	<path clip-path="url(#SVGID_2_)" fill="#58B749" d="M2.801,3.491c0.228-0.228,0.228-0.597,0-0.825
		c-0.228-0.228-0.597-0.228-0.825,0c-2.634,2.634-2.634,6.921,0,9.555c0.114,0.114,0.263,0.171,0.412,0.171
		c0.149,0,0.299-0.057,0.412-0.171c0.228-0.228,0.228-0.597,0-0.825C0.621,9.217,0.621,5.671,2.801,3.491"/>
	<path clip-path="url(#SVGID_2_)" fill="#58B749" d="M5.257,3.832c-0.228-0.228-0.597-0.228-0.825,0
		C3.49,4.774,2.972,6.028,2.972,7.363c0,1.335,0.519,2.589,1.461,3.531c0.114,0.114,0.263,0.171,0.412,0.171
		c0.149,0,0.299-0.057,0.412-0.171c0.228-0.228,0.228-0.597,0-0.825C4.536,9.347,4.138,8.386,4.138,7.363s0.397-1.984,1.119-2.706
		C5.485,4.43,5.485,4.061,5.257,3.832"/>
</g>
</svg>