<?xml version="1.0" encoding="utf-8"?>
<!-- Generator: Adobe Illustrator 17.0.1, SVG Export Plug-In . SVG Version: 6.00 Build 0)  -->
<!DOCTYPE svg PUBLIC "-//W3C//DTD SVG 1.1//EN" "http://www.w3.org/Graphics/SVG/1.1/DTD/svg11.dtd">
<svg version="1.1" id="Слой_1" xmlns="http://www.w3.org/2000/svg" xmlns:xlink="http://www.w3.org/1999/xlink" x="0px" y="0px"
	 width="35px" height="35px" viewBox="0 0 35 35" enable-background="new 0 0 35 35" xml:space="preserve">
<g>
	<defs>
		<rect id="SVGID_1_" width="35" height="35"/>
	</defs>
	<clipPath id="SVGID_2_">
		<use xlink:href="#SVGID_1_"  overflow="visible"/>
	</clipPath>
	<path clip-path="url(#SVGID_2_)" fill="#333333" d="M23.805,21.896l2.912-4.112c1.356-1.915,2.073-4.168,2.073-6.515
		C28.79,5.056,23.735,0,17.48,0C11.265,0,6.21,5.056,6.21,11.27c0,2.347,0.718,4.599,2.073,6.515l2.912,4.112
		C4.365,22.882,0,25.324,0,28.226C0,32.024,7.687,35,17.5,35S35,32.024,35,28.226C35,25.324,30.635,22.882,23.805,21.896
		 M9.205,17.132c-1.221-1.723-1.866-3.75-1.866-5.862c0-5.592,4.549-10.141,10.182-10.141c5.592,0,10.141,4.549,10.141,10.141
		c0,2.112-0.645,4.138-1.866,5.862l-6.973,9.846c-0.304,0.428-0.797,0.683-1.322,0.683s-1.018-0.255-1.321-0.683L9.205,17.132z
		 M17.5,33.871c-9.793,0-16.371-2.919-16.371-5.645c0-2.272,4.525-4.475,10.802-5.291l3.327,4.696
		c0.514,0.726,1.353,1.16,2.242,1.16c0.889,0,1.728-0.434,2.243-1.16l3.326-4.696c6.277,0.816,10.802,3.019,10.802,5.291
		C33.871,30.952,27.293,33.871,17.5,33.871"/>
	<path clip-path="url(#SVGID_2_)" fill="#58B749" d="M25.403,11.29c0-4.358-3.545-7.903-7.903-7.903S9.597,6.932,9.597,11.29
		s3.545,7.903,7.903,7.903S25.403,15.648,25.403,11.29 M10.726,11.29c0-3.735,3.039-6.774,6.774-6.774s6.774,3.039,6.774,6.774
		s-3.039,6.774-6.774,6.774S10.726,15.026,10.726,11.29"/>
	<path clip-path="url(#SVGID_2_)" fill="#58B749" d="M21.452,15.806V11.29h2.067L17.5,6.024l-6.018,5.266h2.067v4.516H21.452z
		 M18.065,14.677h-1.129v-1.129h1.129V14.677z M20.323,14.677h-1.129v-2.258h-3.387v2.258h-1.129V11.29h5.645V14.677z M17.5,7.524
		l3.014,2.637h-6.028L17.5,7.524z"/>
</g>
</svg>