<?xml version="1.0" encoding="utf-8"?>
<!-- Generator: Adobe Illustrator 17.0.1, SVG Export Plug-In . SVG Version: 6.00 Build 0)  -->
<!DOCTYPE svg PUBLIC "-//W3C//DTD SVG 1.1//EN" "http://www.w3.org/Graphics/SVG/1.1/DTD/svg11.dtd">
<svg version="1.1" id="Capa_1" xmlns="http://www.w3.org/2000/svg" xmlns:xlink="http://www.w3.org/1999/xlink" x="0px" y="0px"
	 width="20px" height="20px" viewBox="0 0 20 20" enable-background="new 0 0 20 20" xml:space="preserve">
<g>
	<g>
		<path fill="#2A761E" d="M18.598,5.213l-8.273-4.136c-0.205-0.102-0.446-0.102-0.65,0L1.402,5.213C1.156,5.336,1,5.588,1,5.863
			c0,0.275,0.156,0.527,0.402,0.65l8.273,4.136c0.102,0.051,0.214,0.077,0.325,0.077c0.111,0,0.223-0.026,0.325-0.077l8.273-4.136
			C18.844,6.391,19,6.139,19,5.863C19,5.588,18.844,5.336,18.598,5.213z M10,9.187L3.353,5.863L10,2.54l6.647,3.323L10,9.187z"/>
	</g>
</g>
<g>
	<g>
		<path fill="#2A761E" d="M18.923,13.811c-0.18-0.359-0.616-0.505-0.976-0.325L10,17.46l-7.948-3.974
			c-0.359-0.18-0.796-0.034-0.976,0.325c-0.18,0.359-0.034,0.796,0.325,0.976l8.273,4.136C9.777,18.974,9.889,19,10,19
			c0.111,0,0.223-0.026,0.325-0.077l8.273-4.136C18.957,14.607,19.103,14.17,18.923,13.811z"/>
	</g>
</g>
<g>
	<g>
		<path fill="#2A761E" d="M18.923,9.675c-0.18-0.359-0.616-0.505-0.976-0.325L10,13.323L2.052,9.349
			C1.693,9.17,1.257,9.315,1.077,9.675c-0.18,0.359-0.034,0.796,0.325,0.976l8.273,4.136c0.102,0.051,0.214,0.077,0.325,0.077
			c0.111,0,0.223-0.026,0.325-0.077l8.273-4.136C18.957,10.471,19.103,10.034,18.923,9.675z"/>
	</g>
</g>
</svg>