<svg 
 xmlns="http://www.w3.org/2000/svg"
 xmlns:xlink="http://www.w3.org/1999/xlink"
 width="20px" height="20px">
<path fill-rule="evenodd"  fill="rgb(42, 118, 30)"
 d="M18.709,5.126 L18.709,16.775 L19.787,16.775 C19.867,16.775 19.939,16.823 19.969,16.897 C20.000,16.971 19.983,17.057 19.926,17.114 L18.186,18.861 C18.109,18.938 17.984,18.938 17.907,18.861 L16.167,17.114 C16.111,17.057 16.094,16.971 16.125,16.897 C16.155,16.823 16.227,16.775 16.306,16.775 L17.384,16.775 L17.384,5.126 L16.306,5.126 C16.227,5.126 16.155,5.078 16.125,5.003 C16.094,4.929 16.111,4.845 16.167,4.788 L17.907,3.040 C17.984,2.962 18.109,2.962 18.186,3.040 L19.926,4.788 C19.983,4.845 20.000,4.929 19.969,5.003 C19.939,5.078 19.867,5.126 19.787,5.126 L18.709,5.126 ZM15.145,3.817 C15.088,3.873 15.004,3.890 14.930,3.859 C14.856,3.828 14.809,3.756 14.809,3.676 L14.809,2.593 L3.210,2.593 L3.210,3.676 C3.210,3.756 3.162,3.828 3.088,3.859 C3.014,3.890 2.930,3.873 2.873,3.817 L1.133,2.068 C1.056,1.990 1.056,1.866 1.133,1.788 L2.873,0.041 C2.930,-0.016 3.014,-0.034 3.088,-0.002 C3.162,0.028 3.210,0.100 3.210,0.180 L3.210,1.262 L14.809,1.262 L14.809,0.180 C14.809,0.100 14.856,0.028 14.930,-0.002 C15.004,-0.034 15.088,-0.016 15.145,0.041 L16.885,1.788 C16.962,1.866 16.962,1.990 16.885,2.068 L15.145,3.817 ZM15.239,5.692 L15.239,19.001 C15.239,19.552 14.794,19.999 14.245,19.999 L0.994,19.999 C0.445,19.999 -0.000,19.552 -0.000,19.001 L-0.000,5.692 C-0.000,5.140 0.445,4.693 0.994,4.693 L14.245,4.693 C14.794,4.693 15.239,5.140 15.239,5.692 ZM13.251,6.690 L1.988,6.690 L1.988,18.003 L13.251,18.003 L13.251,6.690 Z"/>
</svg>