<?xml version="1.0" encoding="utf-8"?>
<!-- Generator: Adobe Illustrator 17.0.1, SVG Export Plug-In . SVG Version: 6.00 Build 0)  -->
<!DOCTYPE svg PUBLIC "-//W3C//DTD SVG 1.1//EN" "http://www.w3.org/Graphics/SVG/1.1/DTD/svg11.dtd">
<svg version="1.1" id="Capa_1" xmlns="http://www.w3.org/2000/svg" xmlns:xlink="http://www.w3.org/1999/xlink" x="0px" y="0px"
	 width="20px" height="20px" viewBox="0 0 20 20" enable-background="new 0 0 20 20" xml:space="preserve">
<g>
	<g>
		<path fill="#2A761E" d="M17.2,7.884h-0.261l-0.849-3.677c-0.231-1.032-1.455-1.763-2.909-1.763H6.822
			c-1.455,0-2.682,0.727-2.909,1.763l-0.83,3.677H2.8c-0.996,0-1.8,0.804-1.8,1.8v4.941c0,0.996,0.804,1.8,1.8,1.8h1.495v1.113
			c0,0.422,0.345,0.768,0.768,0.768s0.768-0.345,0.768-0.768v-1.109h8.35v1.109c0,0.422,0.345,0.768,0.768,0.768
			c0.422,0,0.768-0.345,0.768-0.768v-1.109H17.2c0.996,0,1.8-0.804,1.8-1.8V9.684C19,8.689,18.196,7.884,17.2,7.884z M10.536,7.848
			c0.022-0.595,0.511-1.073,1.109-1.073c0.599,0,1.091,0.478,1.109,1.073H10.536z M5.404,4.516c0.037-0.191,0.613-0.573,1.418-0.573
			h6.359c0.804,0,1.378,0.382,1.418,0.573l0.768,3.332h-1.15c-0.022-1.4-1.161-2.568-2.604-2.568c-1.403,0-2.582,1.128-2.604,2.568
			H4.637L5.404,4.516z M17.505,14.625c0,0.154-0.154,0.305-0.305,0.305H2.8c-0.154,0-0.305-0.154-0.305-0.305V9.684
			c0-0.154,0.154-0.305,0.305-0.305h14.4c0.154,0,0.305,0.154,0.305,0.305V14.625z"/>
		<path fill="#2A761E" d="M5.518,11.371h-0.5c-0.422,0-0.768,0.345-0.768,0.768s0.345,0.768,0.768,0.768h0.5
			c0.422,0,0.768-0.345,0.768-0.768S5.941,11.371,5.518,11.371z"/>
		<path fill="#2A761E" d="M14.978,11.371h-0.496c-0.422,0-0.768,0.345-0.768,0.768s0.345,0.768,0.768,0.768h0.5
			c0.382,0,0.768-0.345,0.768-0.768C15.745,11.716,15.4,11.371,14.978,11.371z"/>
	</g>
</g>
</svg>