<?xml version="1.0" encoding="utf-8"?>
<!-- Generator: Adobe Illustrator 17.0.1, SVG Export Plug-In . SVG Version: 6.00 Build 0)  -->
<!DOCTYPE svg PUBLIC "-//W3C//DTD SVG 1.1//EN" "http://www.w3.org/Graphics/SVG/1.1/DTD/svg11.dtd">
<svg version="1.1" id="Capa_1" xmlns="http://www.w3.org/2000/svg" xmlns:xlink="http://www.w3.org/1999/xlink" x="0px" y="0px"
	 width="20px" height="20px" viewBox="0 0 20 20" enable-background="new 0 0 20 20" xml:space="preserve">
<g display="none">
	<g display="inline">
		<path fill="#2A761E" d="M-56.338,61.458h-34.091V27.367c0-6.276-5.088-11.364-11.364-11.364c-6.275,0-11.363,5.088-11.363,11.364
			v45.455v45.455c0,6.276,5.088,11.364,11.364,11.364s11.364-5.088,11.364-11.364V84.186h22.727v34.091
			c0,6.276,5.088,11.364,11.364,11.364s11.364-5.088,11.364-11.364V72.822C-44.975,66.546-50.063,61.458-56.338,61.458z"/>
	</g>
</g>
<g display="none">
	<g display="inline">
		<path fill="#2A761E" d="M125.48,16.003c-6.276,0-11.364,5.088-11.364,11.364v34.091H80.025c-6.276,0-11.364,5.088-11.364,11.364
			v45.455c0,6.276,5.088,11.364,11.364,11.364s11.364-5.088,11.364-11.364V84.186h22.727v34.091c0,6.276,5.088,11.364,11.364,11.364
			c6.276,0,11.364-5.088,11.364-11.364V72.822V27.367C136.844,21.091,131.756,16.003,125.48,16.003z"/>
	</g>
</g>
<g display="none">
	<g display="inline">
		<path fill="#2A761E" d="M134.408-24.186c-12.224-21.123-29.791-38.839-50.802-51.231C61.94-88.198,37.125-94.952,11.843-94.952
			c-25.281,0-50.096,6.755-71.763,19.535c-21.01,12.393-38.577,30.108-50.801,51.231c-2.034,3.516-2.038,7.85-0.009,11.369
			c2.029,3.519,5.783,5.687,9.844,5.687H0.479v30.71h-26.515c-6.276,0-11.364,5.088-11.364,11.364s5.088,11.364,11.364,11.364H0.479
			v71.969c0,6.276,5.088,11.364,11.364,11.364c6.276,0,11.364-5.088,11.364-11.364v-71.97h26.515
			c6.276,0,11.364-5.088,11.364-11.364s-5.088-11.364-11.364-11.364H23.207v-30.71h101.366c4.062,0,7.814-2.168,9.844-5.687
			C136.447-16.336,136.443-20.67,134.408-24.186z M-79.059-29.857c22.381-26.527,55.658-42.368,90.903-42.368
			s68.522,15.841,90.903,42.368H-79.059z"/>
	</g>
</g>
<g>
	<path fill="#2A761E" d="M14.831,13.153c0.328,0,0.594-0.266,0.594-0.594s-0.266-0.594-0.594-0.594H5.294
		c-0.328,0-0.594,0.266-0.594,0.594s0.266,0.594,0.594,0.594h4.175v5.753c0,0.328,0.266,0.594,0.594,0.594s0.594-0.266,0.594-0.594
		v-5.753L14.831,13.153z"/>
	<path fill="#2A761E" d="M6.766,15.087H2.716V11.05c0-0.328-0.266-0.594-0.594-0.594s-0.594,0.266-0.594,0.594v7.856
		c0,0.328,0.266,0.594,0.594,0.594s0.594-0.266,0.594-0.594v-2.632h3.456v2.632c0,0.328,0.266,0.594,0.594,0.594
		c0.328,0,0.594-0.266,0.594-0.594v-3.226C7.359,15.353,7.094,15.087,6.766,15.087z"/>
	<path fill="#2A761E" d="M17.877,10.457c-0.328,0-0.594,0.266-0.594,0.594v4.036h-4.049c-0.328,0-0.594,0.266-0.594,0.594v3.226
		c0,0.328,0.266,0.594,0.594,0.594c0.328,0,0.594-0.266,0.594-0.594v-2.632h3.455v2.632c0,0.328,0.266,0.594,0.594,0.594
		s0.594-0.266,0.594-0.594V11.05C18.471,10.722,18.205,10.457,17.877,10.457z"/>
	<path fill="#2A761E" d="M2.29,6.551h7.18v3.234c0,0.328,0.266,0.594,0.594,0.594c0.328,0,0.594-0.266,0.594-0.594V6.551h7.221
		c0.265,0,0.498-0.176,0.571-0.43c0.073-0.255-0.032-0.527-0.257-0.667L10.377,0.59C10.185,0.47,9.94,0.47,9.748,0.59L1.975,5.454
		C1.75,5.595,1.646,5.867,1.719,6.121C1.792,6.376,2.025,6.551,2.29,6.551z M10.064,1.793l5.736,3.57H4.358L10.064,1.793z"/>
</g>
</svg>