<?xml version="1.0" encoding="utf-8"?>
<!-- Generator: Adobe Illustrator 17.0.1, SVG Export Plug-In . SVG Version: 6.00 Build 0)  -->
<!DOCTYPE svg PUBLIC "-//W3C//DTD SVG 1.1//EN" "http://www.w3.org/Graphics/SVG/1.1/DTD/svg11.dtd">
<svg version="1.1" id="Layer_1" xmlns="http://www.w3.org/2000/svg" xmlns:xlink="http://www.w3.org/1999/xlink" x="0px" y="0px"
	 width="45px" height="45px" viewBox="0 0 45 45" enable-background="new 0 0 45 45" xml:space="preserve">
<g transform="translate(0 1)">
	<g>
		<g>
			<path fill="#333333" d="M42.057,15.85L25.58,1.236c-1.719-1.648-4.442-1.648-6.161,0L13.903,6.25V4.316h0.716
				c0.43,0,0.716-0.287,0.716-0.716V0.734c0-0.43-0.287-0.716-0.716-0.716H6.023c-0.43,0-0.716,0.287-0.716,0.716V3.6
				c0,0.43,0.287,0.716,0.716,0.716H6.74v8.238L2.943,15.85c-0.501,0.501-0.645,1.146-0.43,1.791
				c0.215,0.573,0.86,1.003,1.504,1.003H6.74v20.058H6.023c-0.43,0-0.716,0.287-0.716,0.716v2.865c0,0.43,0.287,0.716,0.716,0.716
				h32.953c0.358,0,0.716-0.287,0.716-0.788v-2.865c0-0.215-0.072-0.358-0.215-0.501c-0.143-0.143-0.287-0.215-0.501-0.215H38.26
				V18.572h2.722c0.716,0,1.289-0.358,1.504-1.003C42.702,16.996,42.558,16.28,42.057,15.85z M41.126,17.139
				c-0.072,0.072-0.143,0.072-0.143,0.072h-3.439c-0.43,0-0.716,0.287-0.716,0.716v21.491c0,0.43,0.287,0.716,0.716,0.716h0.716
				v1.433H6.74v-1.433h0.716c0.43,0,0.716-0.287,0.716-0.716V17.927c0-0.43-0.287-0.716-0.716-0.716H4.018
				c-0.072,0-0.143,0-0.143-0.072c0-0.072,0-0.143,0.072-0.215l4.012-3.439c0.143-0.143,0.215-0.358,0.215-0.573V3.6
				c0-0.43-0.287-0.716-0.716-0.716H6.74V1.451h7.164v1.433h-0.716c-0.43,0-0.716,0.287-0.716,0.716v4.298
				c0,0.287,0.143,0.573,0.43,0.788c0.287,0.072,0.573,0.072,0.788-0.143l6.734-6.161c1.146-1.146,2.937-1.146,4.155,0
				l16.477,14.614C41.126,16.996,41.197,17.068,41.126,17.139z"/>
		</g>
	</g>
</g>
<g>
	<g>
		<g>
			<path fill="#58B749" d="M22.374,34.081c-3.663,0-6.643-2.98-6.643-6.643s2.98-6.643,6.643-6.643s6.643,2.98,6.643,6.643
				S26.037,34.081,22.374,34.081z M22.374,21.829c-3.093,0-5.61,2.517-5.61,5.61s2.517,5.61,5.61,5.61s5.61-2.517,5.61-5.61
				C27.984,24.345,25.467,21.829,22.374,21.829z"/>
		</g>
		<g>
			<g>
				<path fill="#58B749" d="M23.579,19.876c-0.285,0-0.516-0.231-0.516-0.516c0-1.004-0.389-2.532-0.688-3.018
					c-0.299,0.487-0.688,2.014-0.688,3.018c0,0.285-0.231,0.516-0.516,0.516s-0.516-0.231-0.516-0.516
					c0-0.64,0.15-1.597,0.372-2.383c0.343-1.209,0.771-1.772,1.348-1.772s1.006,0.563,1.348,1.772
					c0.223,0.786,0.372,1.743,0.372,2.383C24.095,19.645,23.864,19.876,23.579,19.876z"/>
			</g>
			<g>
				<path fill="#58B749" d="M22.374,39.673c-0.577,0-1.006-0.563-1.348-1.772c-0.223-0.786-0.372-1.743-0.372-2.383
					c0-0.285,0.231-0.516,0.516-0.516s0.516,0.231,0.516,0.516c0,1.004,0.389,2.532,0.688,3.018
					c0.299-0.487,0.688-2.014,0.688-3.018c0-0.285,0.231-0.516,0.516-0.516s0.516,0.231,0.516,0.516c0,0.64-0.15,1.597-0.372,2.383
					C23.38,39.109,22.951,39.673,22.374,39.673z"/>
			</g>
			<g>
				<path fill="#58B749" d="M28.938,23.094c-0.132,0-0.264-0.05-0.365-0.151c-0.202-0.202-0.202-0.529,0-0.73
					c0.71-0.71,1.515-2.065,1.648-2.621c-0.556,0.133-1.911,0.937-2.621,1.648c-0.202,0.202-0.529,0.202-0.73,0s-0.202-0.529,0-0.73
					c0.452-0.452,1.235-1.023,1.948-1.421c1.097-0.613,1.799-0.708,2.207-0.3c0.408,0.408,0.313,1.109-0.3,2.207
					c-0.398,0.713-0.969,1.496-1.422,1.948C29.203,23.044,29.07,23.094,28.938,23.094z"/>
			</g>
			<g>
				<path fill="#58B749" d="M14.367,36.337c-0.267,0-0.479-0.083-0.643-0.247c-0.408-0.408-0.313-1.109,0.3-2.207
					c0.398-0.713,0.969-1.496,1.422-1.948c0.202-0.202,0.529-0.202,0.73,0s0.202,0.529,0,0.73c-0.71,0.71-1.515,2.065-1.648,2.621
					c0.556-0.133,1.911-0.937,2.621-1.648c0.202-0.202,0.529-0.201,0.73,0c0.202,0.202,0.202,0.529,0,0.73
					c-0.452,0.452-1.235,1.023-1.948,1.422C15.275,36.155,14.761,36.337,14.367,36.337z"/>
			</g>
			<g>
				<path fill="#58B749" d="M30.453,29.16c-0.285,0-0.516-0.231-0.516-0.516s0.231-0.516,0.516-0.516
					c1.004,0,2.532-0.389,3.018-0.688c-0.487-0.299-2.014-0.688-3.018-0.688c-0.285,0-0.516-0.231-0.516-0.516
					s0.231-0.516,0.516-0.516c0.64,0,1.597,0.15,2.383,0.372c1.209,0.343,1.772,0.771,1.772,1.348c0,0.577-0.563,1.006-1.772,1.348
					C32.05,29.01,31.092,29.16,30.453,29.16z"/>
			</g>
			<g>
				<path fill="#58B749" d="M14.295,29.16c-0.64,0-1.597-0.15-2.383-0.372c-1.209-0.343-1.772-0.771-1.772-1.348
					c0-0.577,0.563-1.006,1.772-1.348c0.786-0.223,1.743-0.372,2.383-0.372c0.285,0,0.516,0.231,0.516,0.516
					s-0.231,0.516-0.516,0.516c-1.004,0-2.532,0.389-3.018,0.688c0.487,0.299,2.014,0.688,3.018,0.688
					c0.285,0,0.516,0.231,0.516,0.516S14.581,29.16,14.295,29.16z"/>
			</g>
			<g>
				<path fill="#58B749" d="M30.381,36.337c-0.395,0-0.908-0.181-1.564-0.547c-0.713-0.398-1.496-0.969-1.948-1.422
					c-0.202-0.202-0.202-0.529,0-0.73c0.202-0.202,0.529-0.202,0.73,0c0.71,0.71,2.065,1.515,2.621,1.648
					c-0.133-0.556-0.937-1.911-1.648-2.621c-0.202-0.202-0.202-0.529,0-0.73c0.202-0.202,0.529-0.202,0.73,0
					c0.452,0.452,1.023,1.235,1.422,1.948c0.613,1.097,0.708,1.799,0.3,2.207C30.86,36.254,30.648,36.337,30.381,36.337z"/>
			</g>
			<g>
				<path fill="#58B749" d="M15.81,23.094c-0.132,0-0.264-0.05-0.365-0.151c-0.452-0.452-1.023-1.235-1.422-1.948
					c-0.613-1.097-0.708-1.799-0.3-2.207c0.408-0.408,1.109-0.313,2.207,0.3c0.713,0.398,1.496,0.969,1.948,1.422
					c0.202,0.202,0.202,0.529,0,0.73c-0.202,0.202-0.529,0.202-0.73,0c-0.71-0.71-2.065-1.515-2.621-1.648
					c0.133,0.556,0.937,1.911,1.648,2.621c0.202,0.202,0.202,0.529,0,0.73C16.074,23.044,15.942,23.094,15.81,23.094z"/>
			</g>
		</g>
	</g>
</g>
</svg>