<?xml version="1.0" encoding="utf-8"?>
<!-- Generator: Adobe Illustrator 17.0.1, SVG Export Plug-In . SVG Version: 6.00 Build 0)  -->
<!DOCTYPE svg PUBLIC "-//W3C//DTD SVG 1.1//EN" "http://www.w3.org/Graphics/SVG/1.1/DTD/svg11.dtd">
<svg version="1.1" id="Слой_1" xmlns="http://www.w3.org/2000/svg" xmlns:xlink="http://www.w3.org/1999/xlink" x="0px" y="0px"
	 width="45px" height="45px" viewBox="0 0 45 45" enable-background="new 0 0 45 45" xml:space="preserve">
<g>
	<defs>
		<rect id="SVGID_1_" x="1.065" y="1" width="42.87" height="43"/>
	</defs>
	<clipPath id="SVGID_2_">
		<use xlink:href="#SVGID_1_"  overflow="visible"/>
	</clipPath>
	<path clip-path="url(#SVGID_2_)" fill="#58B749" d="M28.858,14.88c0.191,0,0.379-0.087,0.501-0.252
		c0.205-0.276,0.148-0.667-0.129-0.872L19.477,6.51c-0.498-0.37-1.248-0.369-1.745,0.004l-9.667,7.244
		C7.79,13.964,7.734,14.355,7.94,14.63c0.206,0.276,0.597,0.332,0.873,0.125l9.667-7.244c0.053-0.04,0.2-0.04,0.254-0.001
		l9.753,7.246C28.598,14.84,28.728,14.88,28.858,14.88"/>
	<path clip-path="url(#SVGID_2_)" fill="#333333" d="M23.487,32.493c-0.237,0.692-0.437,1.368-0.562,1.971
		c-0.802,3.881,0.694,6.663,5,9.3c0.172,0.105,0.366,0.161,0.562,0.161h0c0.349,0,0.679-0.175,0.882-0.469
		c0.21-0.302,0.257-0.69,0.127-1.037c-0.729-1.948,0.327-3.137,1.444-4.395c0.143-0.161,0.284-0.32,0.418-0.477
		c1.532-1.792,2.457-3.077,2.866-4.434c0.228-0.756,0.403-0.509,0.521-0.287c1.204,2.255,2.848,6.97,1.953,9.891
		c-0.093,0.303-0.04,0.62,0.145,0.87C37.037,43.845,37.353,44,37.691,44c0.214,0,0.425-0.061,0.608-0.177
		c2.716-1.71,4.473-3.884,5.223-6.462c0.595-2.046,0.546-4.296-0.144-6.688c-0.563-1.951-1.413-3.515-2.027-4.484
		c-1.317-2.078-1.839-2.078-2.09-2.078c-0.264,0-0.513,0.127-0.665,0.341c-0.173,0.242-0.201,0.537-0.084,0.877
		c0.042,0.123-0.03,0.217-0.078,0.089c-0.556-1.474-1.434-2.646-2.235-3.491c-0.899-0.948-1.92-1.711-2.875-2.249
		c-0.122-0.069-0.363-0.196-0.363-0.533v-3.324c0-0.199,0.212-0.196,0.212-0.196h1.994c0.536,0,0.834-0.311,0.934-0.601
		c0.1-0.291,0.056-0.718-0.368-1.048l-2.972-2.314c0,0-0.293-0.205-0.293-0.464V5.816c0-0.659-0.536-1.195-1.195-1.195h-3.707
		c-0.659,0-1.195,0.536-1.195,1.195v0.729c0,0.173-0.142,0.032-0.142,0.032l-6.817-5.308c-0.46-0.358-1.153-0.358-1.613,0
		L1.478,13.977c-0.423,0.33-0.467,0.758-0.368,1.048c0.1,0.291,0.398,0.601,0.934,0.601h1.988c0,0,0.218-0.012,0.218,0.239v15.149
		c0,0.659,0.536,1.195,1.195,1.195h9.341c0.659,0,1.195-0.536,1.195-1.195v-4.421c0-0.238-0.007-0.623-0.015-0.858
		c0-0.013-0.023-1.324,0.749-2.123c0.421-0.435,1.004-0.647,1.785-0.647c0.826,0,1.474,0.23,1.926,0.683
		c0.803,0.805,0.809,2.094,0.809,2.104c-0.003,0.231-0.005,0.61-0.005,0.841v4.421c0,0.659,0.536,1.195,1.195,1.195 M27.93,7.783
		V6.335c0-0.156,0.154-0.155,0.154-0.155h2.708c0,0,0.118-0.012,0.118,0.127v3.703c0,0.247-0.162,0.085-0.162,0.085l-2.777-2.162
		C27.955,7.912,27.93,7.878,27.93,7.783 M23.156,30.65c-0.416,0-0.368-0.44-0.368-0.44v-3.617c0-0.226,0.002-0.596,0.005-0.821
		c0.001-0.078,0.009-1.934-1.251-3.211c-0.756-0.765-1.78-1.154-3.042-1.154c-1.208,0-2.186,0.378-2.905,1.122
		c-1.239,1.282-1.188,3.179-1.185,3.26c0.007,0.217,0.014,0.585,0.014,0.804v3.514c0,0,0.007,0.544-0.591,0.544H6.421
		c-0.71,0-0.613-0.648-0.613-0.648v-14.74c0-0.659-0.536-1.195-1.195-1.195H4.196c-0.277,0-0.043-0.199-0.043-0.199L18.106,3.004
		c0,0,0.297-0.264,0.479-0.264c0.195,0,0.529,0.272,0.529,0.272l7.942,6.184l3.826,2.979c0.001,0.001,0.002,0.001,0.002,0.002
		l2.163,1.684c0,0,0.29,0.207-0.125,0.207h-0.324c-0.659,0-1.195,0.536-1.195,1.195v3.273c0,0.312-0.255,0.287-0.373,0.271
		c-0.119-0.017-0.231-0.025-0.335-0.025c-0.693,0-1.006,0.346-1.131,0.552c-0.154,0.255-0.272,0.686,0.044,1.292
		c0.486,0.931,0.28,3.05-0.55,5.669c-0.234,0.738-0.487,1.424-0.733,2.031c-0.096,0.237-0.26,0.725-0.357,0.216
		c-0.159-1.11-0.381-1.774-0.713-2.157c-0.242-0.28-0.526-0.322-0.674-0.322c-0.287,0-0.788,0.131-0.93,1.008
		c-0.043,0.185-0.356,0.918-0.632,1.565c-0.212,0.497-0.458,1.074-0.707,1.685c-0.044,0.109-0.133,0.33-0.341,0.33
		C23.97,30.65,23.359,30.65,23.156,30.65 M42.369,34.746c-0.096,2.728-1.29,5.092-3.671,6.893c-0.226,0.171-0.215-0.177-0.207-0.365
		c0.149-3.665-1.668-8.408-3.023-10.241c-0.311-0.42-0.797-0.979-1.424-0.979c-0.331,0-1.105,0.156-1.152,1.604
		c-0.045,1.372-0.654,2.465-2.715,4.876c-0.128,0.15-0.263,0.301-0.399,0.455c-0.922,1.038-2.052,2.376-2.082,4.259
		c-0.007,0.428-0.24,0.33-0.372,0.231c-3.018-2.265-3.357-4.347-2.871-6.7c0.339-1.639,1.157-3.556,1.818-5.106
		c0.012-0.029,0.202-0.571,0.29,0.041c0.068,0.469,0.069,0.912,0.025,1.214c-0.056,0.387-0.071,0.789,0.199,1.1
		c0.16,0.185,0.392,0.291,0.636,0.291h0.001c0.544-0.001,0.877-0.476,1.171-0.962c0.602-0.994,1.541-3.098,2.184-5.369
		c0.686-2.427,0.855-4.227,0.52-5.22c-0.202-0.357,0.333-0.191,0.586-0.078c0.89,0.398,2.083,1.148,3.186,2.312
		c1.157,1.22,2.506,3.235,2.364,5.909c-0.019,0.35,0,0.712,0.259,0.985c0.158,0.167,0.372,0.259,0.6,0.259h0
		c0.207,0,0.508-0.076,0.767-0.439c0.257-0.36,0.61-1.249,0.837-2.218c0.04-0.173,0.133-0.455,0.393-0.06
		C41.357,29.108,42.479,31.593,42.369,34.746"/>
</g>
</svg>