<?xml version="1.0" encoding="utf-8"?>
<!-- Generator: Adobe Illustrator 17.0.1, SVG Export Plug-In . SVG Version: 6.00 Build 0)  -->
<!DOCTYPE svg PUBLIC "-//W3C//DTD SVG 1.1//EN" "http://www.w3.org/Graphics/SVG/1.1/DTD/svg11.dtd">
<svg version="1.1" id="Слой_1" xmlns="http://www.w3.org/2000/svg" xmlns:xlink="http://www.w3.org/1999/xlink" x="0px" y="0px"
	 width="45px" height="45px" viewBox="0 0 45 45" enable-background="new 0 0 45 45" xml:space="preserve">
<g>
	<defs>
		<rect id="SVGID_1_" x="0.5" y="4.167" width="44" height="36.667"/>
	</defs>
	<clipPath id="SVGID_2_">
		<use xlink:href="#SVGID_1_"  overflow="visible"/>
	</clipPath>
	<path clip-path="url(#SVGID_2_)" fill="#333333" d="M30.567,32.033c-0.44,0-0.733,0.293-0.733,0.733s0.293,0.733,0.733,0.733H31.3
		h7.333h0.733c0.44,0,0.733-0.293,0.733-0.733s-0.293-0.733-0.733-0.733v-6.6c0-0.44-0.293-0.733-0.733-0.733H31.3
		c-0.44,0-0.733,0.293-0.733,0.733V32.033z M32.033,29.833h2.2v2.2h-2.2V29.833z M35.7,29.833h2.2v2.2h-2.2V29.833z M37.9,28.367
		h-2.2v-2.2h2.2V28.367z M34.233,28.367h-2.2v-2.2h2.2V28.367z"/>
	<path clip-path="url(#SVGID_2_)" fill="#333333" d="M26.167,33.5h-0.66c-0.44,0-0.733,0.293-0.733,0.733
		c0,0.44,0.293,0.733,0.733,0.733h0.66c0.44,0,0.733-0.293,0.733-0.733C26.9,33.793,26.607,33.5,26.167,33.5"/>
	<path clip-path="url(#SVGID_2_)" fill="#58B749" d="M13.92,35.92c0.733-0.44,1.393-0.953,2.127-1.467
		c3.96-3.08,6.307-8.14,6.307-13.42v-6.6c0-0.367-0.22-0.66-0.513-0.733c-3.007-0.807-5.573-2.2-7.847-3.593
		c-0.22-0.147-0.513-0.147-0.733,0C10.987,11.5,8.493,12.893,5.413,13.7C5.12,13.847,4.9,14.067,4.9,14.433v6.6
		c0,5.28,2.347,10.34,6.307,13.42c0.66,0.587,1.393,1.027,2.127,1.467c0.147,0.073,0.22,0.073,0.367,0.073
		C13.847,35.993,13.92,35.92,13.92,35.92 M12.087,33.28c-3.593-2.787-5.72-7.407-5.72-12.247V15.02
		c2.86-0.88,5.207-2.127,7.333-3.373c2.127,1.247,4.473,2.567,7.333,3.373v6.013c0,4.84-2.127,9.46-5.72,12.247
		c-0.513,0.44-1.1,0.807-1.613,1.1C13.113,34.087,12.6,33.72,12.087,33.28"/>
	<path clip-path="url(#SVGID_2_)" fill="#58B749" d="M11.94,14.727l-0.66,0.293c-0.733,0.367-1.467,0.733-2.2,0.953
		c-0.293,0.073-0.513,0.367-0.513,0.66v5.133c0,2.86,0.807,4.62,2.347,6.967C11.06,28.953,11.28,29.1,11.5,29.1
		c0.147,0,0.293-0.073,0.367-0.073c0.367-0.22,0.44-0.66,0.22-1.027c-1.393-2.2-2.053-3.74-2.053-6.233v-4.62
		c0.587-0.22,1.247-0.513,1.833-0.807l0.66-0.293c0.367-0.147,0.513-0.587,0.367-0.953C12.747,14.727,12.307,14.58,11.94,14.727"/>
	<path clip-path="url(#SVGID_2_)" fill="#333333" d="M44.06,16.707l-6.893-2.585V8.567H37.9c0.44,0,0.733-0.293,0.733-0.733V4.9
		c0-0.44-0.293-0.733-0.733-0.733h-9.533c-0.44,0-0.733,0.293-0.733,0.733v2.933c0,0.44,0.293,0.733,0.733,0.733H29.1v2.53
		l-2.555-0.958c-0.074-0.049-0.153-0.086-0.232-0.105c-5.207-0.66-8.947-2.787-12.173-4.987c-0.22-0.147-0.587-0.147-0.807,0
		c-3.3,2.2-7.04,4.327-12.173,4.987C0.793,10.107,0.5,10.4,0.5,10.767V20.96c0,6.673,3.007,13.053,7.993,16.94
		c1.493,1.208,3.123,2.14,4.758,2.798c0.098,0.069,0.215,0.114,0.344,0.129c0.039,0.006,0.072,0.007,0.104,0.007h6.6h8.067h13.2
		c0.44,0,0.733-0.293,0.66-0.733v-2.587c0.047-0.1,0.073-0.217,0.073-0.347c0-0.13-0.026-0.246-0.073-0.347V21.174l1.247,0.519
		c0.073,0.073,0.22,0.073,0.293,0.073c0.147,0,0.293-0.073,0.44-0.147c0.147-0.147,0.293-0.367,0.293-0.587v-3.667
		C44.5,17.073,44.353,16.78,44.06,16.707 M29.1,5.633h8.067V7.1h-0.733h-6.6H29.1V5.633z M35.7,8.567v4.987l-5.133-1.907v-3.08H35.7
		z M40.833,36.433H29.1v-8.8c0-0.44-0.293-0.733-0.733-0.733h-2.272c0.328-1.193,0.56-2.42,0.687-3.667H29.1h0.733
		c0.44,0,0.733-0.293,0.733-0.733s-0.293-0.733-0.733-0.733V18.1c0-0.44-0.293-0.733-0.733-0.733h-2.2V14.8l13.933,5.793V36.433z
		 M28.367,21.767H26.9V20.96v-2.127h1.467V21.767z M1.967,20.96v-9.533c5.5-0.88,9.533-3.447,11.733-4.913
		c2.2,1.467,6.233,4.033,11.733,4.913V13.7v4.4v2.86c0,0.311-0.009,0.621-0.023,0.931c-0.011,0.167-0.027,0.343-0.051,0.536
		c0,0.046,0.004,0.091,0.01,0.137c-0.125,1.631-0.441,3.226-0.928,4.749c-0.015,0.032-0.027,0.066-0.035,0.101
		c-0.238,0.733-0.518,1.452-0.835,2.152c0,0.001-0.001,0.002-0.001,0.002c-0.068,0.149-0.138,0.297-0.209,0.445
		c-0.026,0.053-0.052,0.107-0.078,0.16c-0.042,0.086-0.086,0.171-0.129,0.256c-0.063,0.123-0.127,0.246-0.192,0.368
		c-0.003,0.005-0.006,0.011-0.009,0.016c-1.239,2.29-2.908,4.312-4.927,5.915c-1.393,1.1-2.86,1.98-4.327,2.567
		c-1.467-0.66-2.933-1.467-4.327-2.567C4.753,33.133,1.967,27.193,1.967,20.96 M17.385,39.007c0.521-0.339,1.029-0.708,1.522-1.107
		c0.225-0.175,0.444-0.357,0.66-0.542v2.008h-2.713C17.026,39.251,17.204,39.131,17.385,39.007 M21.033,39.367v-3.373
		c2.053-2.127,3.593-4.767,4.62-7.627h1.98v11H21.033z M29.1,37.9h11.733v1.467H29.1V37.9z M43.033,19.933L26.9,13.187v-1.393
		l16.133,6.087V19.933z"/>
</g>
</svg>