<?xml version="1.0" encoding="utf-8"?>
<!-- Generator: Adobe Illustrator 17.0.1, SVG Export Plug-In . SVG Version: 6.00 Build 0)  -->
<!DOCTYPE svg PUBLIC "-//W3C//DTD SVG 1.1//EN" "http://www.w3.org/Graphics/SVG/1.1/DTD/svg11.dtd">
<svg version="1.1" id="Слой_1" xmlns="http://www.w3.org/2000/svg" xmlns:xlink="http://www.w3.org/1999/xlink" x="0px" y="0px"
	 width="45px" height="45px" viewBox="0 0 45 45" enable-background="new 0 0 45 45" xml:space="preserve">
<g>
	<defs>
		<rect id="SVGID_1_" x="2.417" y="1" width="40.167" height="43"/>
	</defs>
	<clipPath id="SVGID_2_">
		<use xlink:href="#SVGID_1_"  overflow="visible"/>
	</clipPath>
	<path clip-path="url(#SVGID_2_)" fill="#333333" d="M42.057,16.85L25.58,2.236c-1.719-1.648-4.442-1.648-6.161,0L13.903,7.25V5.316
		h0.716c0.43,0,0.716-0.287,0.716-0.716V1.734c0-0.43-0.287-0.716-0.716-0.716H6.023c-0.43,0-0.716,0.287-0.716,0.716V4.6
		c0,0.43,0.287,0.716,0.716,0.716H6.74v8.238L2.943,16.85c-0.501,0.501-0.645,1.146-0.43,1.791c0.215,0.573,0.86,1.003,1.504,1.003
		H6.74v20.058H6.023c-0.43,0-0.716,0.287-0.716,0.716v2.865c0,0.43,0.287,0.716,0.716,0.716h32.953c0.358,0,0.716-0.287,0.716-0.788
		v-2.865c0-0.215-0.072-0.358-0.215-0.501c-0.143-0.143-0.287-0.215-0.501-0.215H38.26V19.572h2.722
		c0.716,0,1.289-0.358,1.504-1.003C42.702,17.996,42.558,17.28,42.057,16.85 M41.126,18.139c-0.072,0.072-0.143,0.072-0.143,0.072
		h-3.439c-0.43,0-0.716,0.287-0.716,0.716v21.491c0,0.43,0.287,0.716,0.716,0.716h0.716v1.433H6.74v-1.433h0.716
		c0.43,0,0.716-0.287,0.716-0.716V18.927c0-0.43-0.287-0.716-0.716-0.716H4.018c-0.072,0-0.143,0-0.143-0.072s0-0.143,0.072-0.215
		l4.012-3.439c0.143-0.143,0.215-0.358,0.215-0.573V4.6c0-0.43-0.287-0.716-0.716-0.716H6.74V2.451h7.164v1.433h-0.716
		c-0.43,0-0.716,0.287-0.716,0.716v4.298c0,0.287,0.143,0.573,0.43,0.788c0.287,0.072,0.573,0.072,0.788-0.143l6.734-6.161
		c1.146-1.146,2.937-1.146,4.155,0l16.477,14.614C41.126,17.996,41.197,18.068,41.126,18.139"/>
	<path clip-path="url(#SVGID_2_)" fill="#58B749" d="M30.042,20.638c0.417,0.005,0.754-0.327,0.759-0.742
		c0.038-3.237-0.398-5.692-0.417-5.795c-0.062-0.341-0.349-0.596-0.695-0.616c-0.347-0.02-0.661,0.2-0.761,0.532
		c-0.843,2.787-2.082,3.283-4.798,4.368c-1.131,0.452-2.538,1.014-4.193,1.872c-5.142,2.666-5.551,11.001-5.559,13.422
		c-0.922,0.581-1.901,1.122-2.939,1.601c-0.376,0.174-0.54,0.62-0.367,0.996c0.127,0.274,0.398,0.436,0.682,0.436
		c0.105,0,0.212-0.022,0.314-0.069c1.045-0.482,2.03-1.023,2.957-1.599c1.238,0.217,2.409,0.325,3.512,0.325
		c2.873,0,5.283-0.733,7.192-2.193c2.824-2.16,4.489-5.81,4.95-10.849c0.038-0.413-0.266-0.778-0.679-0.816
		c-0.412-0.038-0.778,0.266-0.815,0.679c-0.42,4.605-1.89,7.9-4.367,9.794c-1.982,1.516-4.645,2.12-7.931,1.802
		c2.582-1.889,4.597-3.98,6.006-5.664c0.439-0.525,0.838-1.031,1.196-1.507l1.762-0.039c0.414-0.009,0.743-0.353,0.734-0.767
		s-0.353-0.745-0.767-0.734l-0.641,0.014c0.859-1.275,1.299-2.116,1.328-2.173c0.191-0.368,0.047-0.82-0.321-1.011
		c-0.368-0.191-0.821-0.048-1.012,0.32c-0.027,0.053-1.703,3.219-4.977,6.649l0.143-2.154c0.028-0.414-0.285-0.771-0.699-0.799
		c-0.413-0.028-0.771,0.285-0.799,0.699l-0.255,3.831c-0.817,0.748-1.71,1.488-2.677,2.19c0.047-0.999,0.165-2.359,0.452-3.801
		c0.92-4.64,2.828-6.504,4.266-7.249c1.59-0.824,2.902-1.348,4.059-1.811c1.952-0.78,3.441-1.374,4.518-2.858
		c0.064,0.847,0.109,1.858,0.096,2.957C29.295,20.293,29.628,20.633,30.042,20.638"/>
</g>
</svg>