<?xml version="1.0" encoding="utf-8"?>
<!-- Generator: Adobe Illustrator 17.0.1, SVG Export Plug-In . SVG Version: 6.00 Build 0)  -->
<!DOCTYPE svg PUBLIC "-//W3C//DTD SVG 1.1//EN" "http://www.w3.org/Graphics/SVG/1.1/DTD/svg11.dtd">
<svg version="1.1" id="Слой_1" xmlns="http://www.w3.org/2000/svg" xmlns:xlink="http://www.w3.org/1999/xlink" x="0px" y="0px"
	 width="45px" height="45px" viewBox="0 0 45 45" enable-background="new 0 0 45 45" xml:space="preserve">
<g>
	<defs>
		<rect id="SVGID_1_" x="1.359" y="1" width="42.282" height="43"/>
	</defs>
	<clipPath id="SVGID_2_">
		<use xlink:href="#SVGID_1_"  overflow="visible"/>
	</clipPath>
	<path clip-path="url(#SVGID_2_)" fill="#58B749" d="M23.878,19.025l-5.745-2.873c-0.189-0.095-0.413-0.095-0.602,0l-5.745,2.873
		c-0.228,0.114-0.372,0.347-0.372,0.602v9.336c0,0.372,0.301,0.673,0.673,0.673h4.309c0.372,0,0.673-0.301,0.673-0.673V24.61h1.526
		v4.354c0,0.372,0.301,0.673,0.673,0.673h4.309c0.372,0,0.673-0.301,0.673-0.673v-9.336C24.25,19.372,24.106,19.139,23.878,19.025
		 M22.904,28.29h-2.962v-4.354c0-0.372-0.301-0.673-0.673-0.673h-2.873c-0.372,0-0.673,0.301-0.673,0.673v4.354H12.76v-8.247
		l5.072-2.536l5.072,2.536L22.904,28.29L22.904,28.29z"/>
	<path clip-path="url(#SVGID_2_)" fill="#58B749" d="M26.054,17.6l-7.9-4.309c-0.201-0.11-0.444-0.11-0.645,0L9.61,17.6
		c-0.326,0.178-0.447,0.587-0.269,0.913c0.178,0.326,0.587,0.447,0.913,0.269l7.577-4.133l7.577,4.133
		c0.102,0.056,0.213,0.082,0.322,0.082c0.238,0,0.469-0.127,0.592-0.351C26.501,18.187,26.381,17.778,26.054,17.6"/>
	<path clip-path="url(#SVGID_2_)" fill="#333333" d="M41.331,27.594c-0.238-0.286-0.662-0.325-0.948-0.087
		c-0.286,0.238-0.325,0.662-0.087,0.948c1.289,1.55,1.999,3.516,1.999,5.535c0,4.777-3.886,8.663-8.663,8.663
		s-8.663-3.886-8.663-8.663c0-4.775,3.884-8.66,8.659-8.663c0.001,0,0.003,0,0.004,0s0.003,0,0.004,0
		c1.659,0.001,3.27,0.471,4.66,1.361c0.313,0.2,0.729,0.109,0.93-0.204c0.2-0.313,0.109-0.73-0.204-0.93
		c-1.419-0.909-3.038-1.439-4.717-1.551V6.611c0-1.114-0.906-2.02-2.02-2.02h-5.162V1.673C27.123,1.301,26.822,1,26.45,1h-2.873
		c-0.372,0-0.673,0.301-0.673,0.673v2.918h-2.962V1.673C19.942,1.301,19.64,1,19.268,1h-2.873c-0.372,0-0.673,0.301-0.673,0.673
		v2.918H12.76V1.673C12.76,1.301,12.459,1,12.087,1H9.214C8.842,1,8.541,1.301,8.541,1.673v2.918H3.379
		c-1.114,0-2.02,0.906-2.02,2.02v20.916c0,0.372,0.301,0.673,0.673,0.673c0.372,0,0.673-0.301,0.673-0.673V10.964h18.717
		c0.372,0,0.673-0.301,0.673-0.673c0-0.372-0.301-0.673-0.673-0.673H2.706V6.611c0-0.371,0.302-0.673,0.673-0.673h5.162v2.199
		c0,0.372,0.301,0.673,0.673,0.673h2.873c0.372,0,0.673-0.301,0.673-0.673V5.937h2.962v2.199c0,0.372,0.301,0.673,0.673,0.673h2.873
		c0.372,0,0.673-0.301,0.673-0.673V5.937h2.962v2.199c0,0.372,0.301,0.673,0.673,0.673h2.873c0.372,0,0.673-0.301,0.673-0.673V5.937
		h5.162c0.371,0,0.673,0.302,0.673,0.673v3.007h-7.945c-0.372,0-0.673,0.301-0.673,0.673c0,0.372,0.301,0.673,0.673,0.673h7.945
		v13.04c-5.206,0.348-9.336,4.693-9.336,9.986c0,0.015,0.001,0.03,0.001,0.045H3.379c-0.371,0-0.673-0.302-0.673-0.673v-2.244
		c0-0.372-0.301-0.673-0.673-0.673c-0.372,0-0.673,0.301-0.673,0.673v2.244c0,1.114,0.906,2.02,2.02,2.02h20.34
		C24.399,40.245,28.585,44,33.632,44c5.519,0,10.009-4.49,10.009-10.009C43.641,31.657,42.82,29.385,41.331,27.594 M11.413,7.463
		H9.887V2.347h1.526L11.413,7.463L11.413,7.463z M18.595,7.463h-1.526V2.347h1.526V7.463z M25.777,7.463h-1.526V2.347h1.526V7.463z"
		/>
	<path clip-path="url(#SVGID_2_)" fill="#58B749" d="M33.632,26.854c-3.935,0-7.137,3.201-7.137,7.137s3.201,7.137,7.137,7.137
		c3.935,0,7.137-3.201,7.137-7.137S37.567,26.854,33.632,26.854 M33.632,39.781c-3.193,0-5.79-2.597-5.79-5.79
		c0-3.193,2.597-5.79,5.79-5.79c3.193,0,5.79,2.597,5.79,5.79C39.422,37.183,36.824,39.781,33.632,39.781"/>
	<path clip-path="url(#SVGID_2_)" fill="#58B749" d="M37.8,32.208c-0.191-0.319-0.605-0.422-0.924-0.231l-3.14,1.884l-2.501-2.501
		c-0.263-0.263-0.689-0.263-0.952,0c-0.263,0.263-0.263,0.689,0,0.952l2.873,2.873c0.216,0.216,0.56,0.258,0.822,0.101l3.591-2.154
		C37.888,32.94,37.991,32.527,37.8,32.208"/>
</g>
</svg>