<?xml version="1.0" encoding="utf-8"?>
<!-- Generator: Adobe Illustrator 17.0.1, SVG Export Plug-In . SVG Version: 6.00 Build 0)  -->
<!DOCTYPE svg PUBLIC "-//W3C//DTD SVG 1.1//EN" "http://www.w3.org/Graphics/SVG/1.1/DTD/svg11.dtd">
<svg version="1.1" id="Слой_1" xmlns="http://www.w3.org/2000/svg" xmlns:xlink="http://www.w3.org/1999/xlink" x="0px" y="0px"
	 width="45px" height="45px" viewBox="0 0 45 45" enable-background="new 0 0 45 45" xml:space="preserve">
<g>
	<defs>
		<rect id="SVGID_1_" x="1" y="1" width="42.999" height="43"/>
	</defs>
	<clipPath id="SVGID_2_">
		<use xlink:href="#SVGID_1_"  overflow="visible"/>
	</clipPath>
	<path clip-path="url(#SVGID_2_)" fill="#58B749" d="M10.116,5.622c0.114,0.276,0.381,0.442,0.662,0.442
		c0.091,0,0.184-0.017,0.274-0.054c0.365-0.152,0.539-0.571,0.388-0.937l-0.548-1.324c-0.151-0.366-0.573-0.537-0.937-0.388
		c-0.365,0.151-0.539,0.57-0.388,0.937L10.116,5.622z"/>
	<path clip-path="url(#SVGID_2_)" fill="#58B749" d="M7.016,8.029c0.14,0.14,0.323,0.21,0.507,0.21c0.183,0,0.366-0.07,0.507-0.21
		c0.279-0.279,0.279-0.734,0-1.013L6.001,4.988c-0.279-0.279-0.733-0.279-1.013,0c-0.279,0.28-0.279,0.734,0,1.014L7.016,8.029z"/>
	<path clip-path="url(#SVGID_2_)" fill="#58B749" d="M14.617,5.301c0.396,0,0.717-0.321,0.717-0.717V1.717
		c0-0.396-0.32-0.717-0.717-0.717C14.221,1,13.9,1.321,13.9,1.717v2.867C13.9,4.98,14.221,5.301,14.617,5.301"/>
	<path clip-path="url(#SVGID_2_)" fill="#58B749" d="M7.452,13.874c0.048,0.011,0.097,0.015,0.144,0.015
		c0.333,0,0.632-0.234,0.702-0.573c0.611-2.984,3.268-5.149,6.319-5.149c1.41,0,2.75,0.447,3.874,1.293
		c0.317,0.238,0.766,0.173,1.004-0.143c0.238-0.316,0.175-0.765-0.142-1.003c-1.375-1.033-3.012-1.58-4.736-1.58
		c-3.728,0-6.976,2.647-7.723,6.294C6.814,13.416,7.065,13.795,7.452,13.874"/>
	<path clip-path="url(#SVGID_2_)" fill="#58B749" d="M21.711,8.239c0.184,0,0.367-0.07,0.507-0.21l2.028-2.027
		c0.279-0.28,0.279-0.734,0-1.014c-0.28-0.279-0.734-0.279-1.014,0l-2.027,2.027c-0.279,0.279-0.279,0.734,0,1.013
		C21.345,8.169,21.528,8.239,21.711,8.239"/>
	<path clip-path="url(#SVGID_2_)" fill="#333333" d="M33.018,14.734c-0.332,0.216-0.426,0.66-0.209,0.992
		c0.757,1.162,1.157,2.514,1.157,3.908c0,0.396,0.32,0.717,0.717,0.717c0.396,0,0.717-0.321,0.717-0.717
		c0-1.673-0.481-3.294-1.39-4.691C33.795,14.611,33.351,14.518,33.018,14.734"/>
	<path clip-path="url(#SVGID_2_)" fill="#333333" d="M17.273,13.25c-0.221,0.329-0.133,0.774,0.195,0.995
		c0.328,0.222,0.775,0.133,0.995-0.195c1.87-2.786,4.987-4.449,8.337-4.449c5.533,0,10.033,4.501,10.033,10.033
		c0,0.909-0.121,1.81-0.36,2.676c-0.105,0.381,0.118,0.776,0.5,0.881c0.064,0.018,0.128,0.026,0.192,0.026
		c0.314,0,0.603-0.209,0.69-0.526c0.274-0.99,0.412-2.02,0.412-3.057c0-6.322-5.144-11.466-11.466-11.466
		C22.972,8.167,19.411,10.067,17.273,13.25"/>
	<path clip-path="url(#SVGID_2_)" fill="#58B749" d="M18.182,6.009c0.09,0.037,0.182,0.055,0.274,0.055
		c0.281,0,0.548-0.166,0.662-0.443l0.549-1.324c0.151-0.366-0.022-0.785-0.388-0.937c-0.364-0.15-0.785,0.021-0.937,0.388
		l-0.548,1.324C17.643,5.438,17.817,5.857,18.182,6.009"/>
	<path clip-path="url(#SVGID_2_)" fill="#333333" d="M8.884,35.4h-2.15c-2.371,0-4.3-1.929-4.3-4.3s1.929-4.3,4.3-4.3
		c0.396,0,0.717-0.321,0.717-0.717c0-0.396-0.32-0.717-0.717-0.717C3.572,25.367,1,27.939,1,31.1s2.572,5.733,5.733,5.733h2.146
		c0.36,0.004,2.154,0.127,2.154,2.15v1.433c0,0.396,0.32,0.717,0.717,0.717c0.396,0,0.717-0.321,0.717-0.717v-1.433
		C12.467,36.149,10.123,35.4,8.884,35.4"/>
	<path clip-path="url(#SVGID_2_)" fill="#58B749" d="M27.517,39.7h-2l1.012-1.799c0.195-0.345,0.072-0.782-0.273-0.976
		c-0.345-0.195-0.783-0.072-0.975,0.274l-0.988,1.757l-0.988-1.757c-0.193-0.345-0.63-0.468-0.975-0.273
		c-0.345,0.194-0.468,0.631-0.273,0.976l1.011,1.798h-1.999c-0.396,0-0.717,0.321-0.717,0.717s0.32,0.717,0.717,0.717h1.999
		l-1.011,1.798c-0.195,0.345-0.072,0.782,0.273,0.976C22.439,43.97,22.559,44,22.678,44c0.251,0,0.494-0.132,0.625-0.365
		l0.988-1.757l0.988,1.757C25.411,43.868,25.654,44,25.905,44c0.119,0,0.239-0.029,0.35-0.092c0.345-0.194,0.468-0.631,0.273-0.976
		l-1.012-1.799h2c0.396,0,0.717-0.321,0.717-0.717S27.913,39.7,27.517,39.7"/>
	<path clip-path="url(#SVGID_2_)" fill="#333333" d="M40.357,21.205c-0.324-0.228-0.77-0.15-0.999,0.172
		c-0.229,0.323-0.152,0.77,0.172,0.999c1.901,1.344,3.036,3.533,3.036,5.857c0,3.952-3.215,7.167-7.167,7.167h-2.15
		c-1.24,0-3.583,0.749-3.583,3.583c0,0.396,0.32,0.717,0.717,0.717c0.396,0,0.717-0.321,0.717-0.717c0-2.023,1.794-2.146,2.15-2.15
		h2.15c4.742,0,8.6-3.858,8.6-8.6C44,25.444,42.638,22.817,40.357,21.205"/>
	<path clip-path="url(#SVGID_2_)" fill="#58B749" d="M18.35,35.4h2c0.396,0,0.717-0.321,0.717-0.717c0-0.396-0.32-0.717-0.717-0.717
		h-2l1.012-1.799c0.195-0.345,0.072-0.782-0.273-0.976c-0.345-0.195-0.783-0.072-0.975,0.274l-0.988,1.757l-0.988-1.757
		c-0.193-0.344-0.63-0.468-0.975-0.273c-0.345,0.194-0.468,0.631-0.273,0.976l1.011,1.798H13.9c-0.396,0-0.717,0.321-0.717,0.717
		c0,0.396,0.32,0.717,0.717,0.717H15.9l-1.011,1.798c-0.195,0.345-0.072,0.782,0.273,0.976c0.111,0.062,0.231,0.092,0.35,0.092
		c0.251,0,0.494-0.132,0.625-0.365l0.988-1.757l0.988,1.757c0.131,0.234,0.374,0.365,0.625,0.365c0.119,0,0.239-0.029,0.35-0.092
		c0.345-0.194,0.468-0.631,0.273-0.976L18.35,35.4z"/>
	<path clip-path="url(#SVGID_2_)" fill="#58B749" d="M1.717,15.334h2.867c0.396,0,0.717-0.321,0.717-0.717s-0.32-0.717-0.717-0.717
		H1.717C1.321,13.901,1,14.222,1,14.617C1,15.013,1.321,15.334,1.717,15.334"/>
	<path clip-path="url(#SVGID_2_)" fill="#58B749" d="M3.749,10.891l1.324,0.548c0.09,0.037,0.182,0.055,0.274,0.055
		c0.281,0,0.548-0.167,0.662-0.443c0.151-0.365-0.022-0.785-0.388-0.937L4.298,9.566C3.934,9.415,3.513,9.588,3.362,9.954
		C3.211,10.319,3.384,10.739,3.749,10.891"/>
	<path clip-path="url(#SVGID_2_)" fill="#333333" d="M18.668,17.581c0.287-0.273,0.297-0.727,0.024-1.013
		c-1.64-1.72-3.851-2.667-6.225-2.667c-4.742,0-8.6,3.858-8.6,8.6c0,0.528,0.048,1.056,0.143,1.569
		c0.064,0.345,0.365,0.587,0.704,0.587c0.043,0,0.087-0.004,0.13-0.012c0.389-0.072,0.647-0.446,0.575-0.835
		C5.34,23.382,5.3,22.941,5.3,22.5c0-3.952,3.215-7.167,7.167-7.167c1.979,0,3.821,0.79,5.188,2.222
		C17.928,17.843,18.381,17.854,18.668,17.581"/>
	<path clip-path="url(#SVGID_2_)" fill="#333333" d="M7.658,21.784c0.31,0,0.594-0.201,0.687-0.512
		c0.277-0.926,0.867-1.742,1.664-2.298c0.325-0.227,0.404-0.673,0.178-0.998c-0.227-0.324-0.672-0.406-0.998-0.178
		c-1.062,0.74-1.849,1.829-2.217,3.064c-0.113,0.379,0.103,0.778,0.482,0.891C7.522,21.774,7.591,21.784,7.658,21.784"/>
</g>
</svg>