<?xml version="1.0" encoding="utf-8"?>
<!-- Generator: Adobe Illustrator 17.0.1, SVG Export Plug-In . SVG Version: 6.00 Build 0)  -->
<!DOCTYPE svg PUBLIC "-//W3C//DTD SVG 1.1//EN" "http://www.w3.org/Graphics/SVG/1.1/DTD/svg11.dtd">
<svg version="1.1" id="Слой_1" xmlns="http://www.w3.org/2000/svg" xmlns:xlink="http://www.w3.org/1999/xlink" x="0px" y="0px"
	 width="45px" height="45px" viewBox="0 0 45 45" enable-background="new 0 0 45 45" xml:space="preserve">
<g>
	<defs>
		<rect id="SVGID_1_" x="3.016" y="1" width="38.967" height="43"/>
	</defs>
	<clipPath id="SVGID_2_">
		<use xlink:href="#SVGID_1_"  overflow="visible"/>
	</clipPath>
	<path clip-path="url(#SVGID_2_)" fill="#333333" d="M35.221,7.742c-0.316-0.272-0.792-0.237-1.065,0.078
		c-0.272,0.316-0.237,0.792,0.078,1.065c3.965,3.421,6.239,8.383,6.239,13.615c0,8.209-5.545,15.367-13.484,17.409
		c-0.404,0.104-0.647,0.515-0.543,0.919c0.088,0.341,0.394,0.567,0.73,0.567c0.062,0,0.125-0.008,0.189-0.024
		c8.606-2.213,14.617-9.973,14.617-18.871C41.984,16.829,39.519,11.45,35.221,7.742"/>
	<path clip-path="url(#SVGID_2_)" fill="#333333" d="M32.762,5.935c-2.456-1.525-5.214-2.475-8.078-2.796l1.168-0.749
		c0.351-0.225,0.453-0.692,0.228-1.043c-0.225-0.351-0.692-0.453-1.043-0.228l-3.146,2.016c-0.2,0.128-0.328,0.343-0.345,0.58
		c-0.017,0.237,0.078,0.468,0.257,0.624l2.816,2.456c0.143,0.125,0.32,0.186,0.496,0.186c0.21,0,0.42-0.088,0.569-0.259
		c0.274-0.314,0.241-0.791-0.073-1.065L24.432,4.63c2.672,0.287,5.245,1.166,7.534,2.587c0.124,0.077,0.261,0.114,0.397,0.114
		c0.252,0,0.499-0.127,0.642-0.357C33.225,6.62,33.116,6.155,32.762,5.935"/>
	<path clip-path="url(#SVGID_2_)" fill="#333333" d="M23.197,40.66l-2.816-2.456c-0.314-0.274-0.791-0.242-1.065,0.073
		c-0.274,0.314-0.241,0.791,0.073,1.065l1.179,1.028C11.562,39.403,4.526,31.758,4.526,22.5c0-4.082,1.334-7.929,3.857-11.126
		c2.448-3.101,5.893-5.339,9.7-6.301c0.404-0.102,0.649-0.513,0.547-0.917s-0.512-0.649-0.917-0.547
		c-4.128,1.043-7.863,3.468-10.515,6.83C4.462,13.904,3.016,18.075,3.016,22.5c0,10.005,7.581,18.272,17.3,19.361l-1.168,0.749
		c-0.351,0.225-0.453,0.692-0.228,1.043C19.064,43.877,19.308,44,19.556,44c0.139,0,0.281-0.039,0.407-0.119l3.146-2.016
		c0.2-0.128,0.328-0.343,0.345-0.58C23.471,41.048,23.376,40.816,23.197,40.66"/>
	<path clip-path="url(#SVGID_2_)" fill="#58B749" d="M32.309,20.426l-3.306-3.306v-5.196c0-0.417-0.338-0.755-0.755-0.755h-3.169
		c-0.417,0-0.755,0.338-0.755,0.755v0.518l-1.656-1.656c-0.295-0.295-0.773-0.295-1.067,0l-9.64,9.641
		c-0.295,0.295-0.295,0.773,0,1.067c0.295,0.295,0.773,0.295,1.067,0l1.535-1.535v5.249c0,0.417,0.338,0.755,0.755,0.755
		c0.417,0,0.755-0.338,0.755-0.755v-6.759l6.062-6.062l6.062,6.062v12.65H16.073v-3.375c0-0.417-0.338-0.755-0.755-0.755
		c-0.417,0-0.755,0.338-0.755,0.755v4.13c0,0.417,0.338,0.755,0.755,0.755h13.634c0.417,0,0.755-0.338,0.755-0.755V19.958
		l1.535,1.535c0.147,0.147,0.341,0.221,0.534,0.221c0.193,0,0.386-0.074,0.534-0.221C32.603,21.198,32.603,20.72,32.309,20.426
		 M27.493,15.61l-1.66-1.66v-1.272h1.66V15.61z"/>
	<path clip-path="url(#SVGID_2_)" fill="#58B749" d="M24.361,19.998h-4.452c-0.417,0-0.755,0.338-0.755,0.755v6.266
		c0,0.417,0.338,0.755,0.755,0.755h4.452c0.417,0,0.755-0.338,0.755-0.755v-6.266C25.116,20.336,24.778,19.998,24.361,19.998
		 M23.606,26.264h-2.943v-4.756h2.943V26.264z"/>
</g>
</svg>